<svg width="562" height="185" viewBox="0 0 562 185" fill="none" xmlns="http://www.w3.org/2000/svg">
<path d="M162.977 15.4545V62H154.477L134.227 32.7045H133.886V62H124.045V15.4545H132.682L152.773 44.7273H153.182V15.4545H162.977ZM180.608 41.8182V62H170.926V15.4545H180.335V33.25H180.744C181.532 31.1894 182.805 29.5758 184.562 28.4091C186.32 27.2273 188.525 26.6364 191.176 26.6364C193.6 26.6364 195.714 27.1667 197.517 28.2273C199.335 29.2727 200.744 30.7803 201.744 32.75C202.759 34.7045 203.259 37.0455 203.244 39.7727V62H193.562V41.5C193.578 39.3485 193.032 37.6742 191.926 36.4773C190.835 35.2803 189.305 34.6818 187.335 34.6818C186.017 34.6818 184.85 34.9621 183.835 35.5227C182.835 36.0833 182.047 36.9015 181.472 37.9773C180.911 39.0379 180.623 40.3182 180.608 41.8182ZM220.818 62.6591C218.591 62.6591 216.606 62.2727 214.864 61.5C213.121 60.7121 211.742 59.553 210.727 58.0227C209.727 56.4773 209.227 54.553 209.227 52.25C209.227 50.3106 209.583 48.6818 210.295 47.3636C211.008 46.0455 211.977 44.9848 213.205 44.1818C214.432 43.3788 215.826 42.7727 217.386 42.3636C218.962 41.9545 220.614 41.6667 222.341 41.5C224.371 41.2879 226.008 41.0909 227.25 40.9091C228.492 40.7121 229.394 40.4242 229.955 40.0455C230.515 39.6667 230.795 39.1061 230.795 38.3636V38.2273C230.795 36.7879 230.341 35.6742 229.432 34.8864C228.538 34.0985 227.265 33.7045 225.614 33.7045C223.871 33.7045 222.485 34.0909 221.455 34.8636C220.424 35.6212 219.742 36.5758 219.409 37.7273L210.455 37C210.909 34.8788 211.803 33.0455 213.136 31.5C214.47 29.9394 216.189 28.7424 218.295 27.9091C220.417 27.0606 222.871 26.6364 225.659 26.6364C227.598 26.6364 229.455 26.8636 231.227 27.3182C233.015 27.7727 234.598 28.4773 235.977 29.4318C237.371 30.3864 238.47 31.6136 239.273 33.1136C240.076 34.5985 240.477 36.3788 240.477 38.4545V62H231.295V57.1591H231.023C230.462 58.25 229.712 59.2121 228.773 60.0455C227.833 60.8636 226.705 61.5076 225.386 61.9773C224.068 62.4318 222.545 62.6591 220.818 62.6591ZM223.591 55.9773C225.015 55.9773 226.273 55.697 227.364 55.1364C228.455 54.5606 229.311 53.7879 229.932 52.8182C230.553 51.8485 230.864 50.75 230.864 49.5227V45.8182C230.561 46.0152 230.144 46.197 229.614 46.3636C229.098 46.5152 228.515 46.6591 227.864 46.7955C227.212 46.9167 226.561 47.0303 225.909 47.1364C225.258 47.2273 224.667 47.3106 224.136 47.3864C223 47.553 222.008 47.8182 221.159 48.1818C220.311 48.5455 219.652 49.0379 219.182 49.6591C218.712 50.2652 218.477 51.0227 218.477 51.9318C218.477 53.25 218.955 54.2576 219.909 54.9545C220.879 55.6364 222.106 55.9773 223.591 55.9773ZM261.21 23.5682V15.4545H299.438V23.5682H285.188V62H275.46V23.5682H261.21ZM301.926 62V27.0909H311.312V33.1818H311.676C312.313 31.0152 313.381 29.3788 314.881 28.2727C316.381 27.1515 318.108 26.5909 320.062 26.5909C320.547 26.5909 321.07 26.6212 321.631 26.6818C322.191 26.7424 322.684 26.8258 323.108 26.9318V35.5227C322.653 35.3864 322.025 35.2652 321.222 35.1591C320.419 35.053 319.684 35 319.017 35C317.593 35 316.32 35.3106 315.199 35.9318C314.093 36.5379 313.214 37.3864 312.562 38.4773C311.926 39.5682 311.608 40.8258 311.608 42.25V62H301.926ZM337.068 62.6591C334.841 62.6591 332.856 62.2727 331.114 61.5C329.371 60.7121 327.992 59.553 326.977 58.0227C325.977 56.4773 325.477 54.553 325.477 52.25C325.477 50.3106 325.833 48.6818 326.545 47.3636C327.258 46.0455 328.227 44.9848 329.455 44.1818C330.682 43.3788 332.076 42.7727 333.636 42.3636C335.212 41.9545 336.864 41.6667 338.591 41.5C340.621 41.2879 342.258 41.0909 343.5 40.9091C344.742 40.7121 345.644 40.4242 346.205 40.0455C346.765 39.6667 347.045 39.1061 347.045 38.3636V38.2273C347.045 36.7879 346.591 35.6742 345.682 34.8864C344.788 34.0985 343.515 33.7045 341.864 33.7045C340.121 33.7045 338.735 34.0909 337.705 34.8636C336.674 35.6212 335.992 36.5758 335.659 37.7273L326.705 37C327.159 34.8788 328.053 33.0455 329.386 31.5C330.72 29.9394 332.439 28.7424 334.545 27.9091C336.667 27.0606 339.121 26.6364 341.909 26.6364C343.848 26.6364 345.705 26.8636 347.477 27.3182C349.265 27.7727 350.848 28.4773 352.227 29.4318C353.621 30.3864 354.72 31.6136 355.523 33.1136C356.326 34.5985 356.727 36.3788 356.727 38.4545V62H347.545V57.1591H347.273C346.712 58.25 345.962 59.2121 345.023 60.0455C344.083 60.8636 342.955 61.5076 341.636 61.9773C340.318 62.4318 338.795 62.6591 337.068 62.6591ZM339.841 55.9773C341.265 55.9773 342.523 55.697 343.614 55.1364C344.705 54.5606 345.561 53.7879 346.182 52.8182C346.803 51.8485 347.114 50.75 347.114 49.5227V45.8182C346.811 46.0152 346.394 46.197 345.864 46.3636C345.348 46.5152 344.765 46.6591 344.114 46.7955C343.462 46.9167 342.811 47.0303 342.159 47.1364C341.508 47.2273 340.917 47.3106 340.386 47.3864C339.25 47.553 338.258 47.8182 337.409 48.1818C336.561 48.5455 335.902 49.0379 335.432 49.6591C334.962 50.2652 334.727 51.0227 334.727 51.9318C334.727 53.25 335.205 54.2576 336.159 54.9545C337.129 55.6364 338.356 55.9773 339.841 55.9773ZM373.92 41.8182V62H364.239V27.0909H373.466V33.25H373.875C374.648 31.2197 375.943 29.6136 377.761 28.4318C379.58 27.2348 381.784 26.6364 384.375 26.6364C386.799 26.6364 388.913 27.1667 390.716 28.2273C392.519 29.2879 393.92 30.803 394.92 32.7727C395.92 34.7273 396.42 37.0606 396.42 39.7727V62H386.739V41.5C386.754 39.3636 386.208 37.697 385.102 36.5C383.996 35.2879 382.473 34.6818 380.534 34.6818C379.231 34.6818 378.08 34.9621 377.08 35.5227C376.095 36.0833 375.322 36.9015 374.761 37.9773C374.216 39.0379 373.936 40.3182 373.92 41.8182ZM419.778 75.8182C416.642 75.8182 413.953 75.3864 411.71 74.5227C409.483 73.6742 407.71 72.5152 406.392 71.0455C405.074 69.5758 404.218 67.9242 403.824 66.0909L412.778 64.8864C413.051 65.5833 413.483 66.2348 414.074 66.8409C414.665 67.447 415.445 67.9318 416.415 68.2955C417.4 68.6742 418.597 68.8636 420.006 68.8636C422.112 68.8636 423.847 68.3485 425.21 67.3182C426.589 66.303 427.278 64.5985 427.278 62.2045V55.8182H426.869C426.445 56.7879 425.809 57.7045 424.96 58.5682C424.112 59.4318 423.021 60.1364 421.688 60.6818C420.354 61.2273 418.763 61.5 416.915 61.5C414.294 61.5 411.907 60.8939 409.756 59.6818C407.619 58.4545 405.915 56.5833 404.642 54.0682C403.384 51.5379 402.756 48.3409 402.756 44.4773C402.756 40.5227 403.4 37.2197 404.688 34.5682C405.975 31.9167 407.688 29.9318 409.824 28.6136C411.975 27.2955 414.331 26.6364 416.892 26.6364C418.847 26.6364 420.483 26.9697 421.801 27.6364C423.119 28.2879 424.18 29.1061 424.983 30.0909C425.801 31.0606 426.43 32.0152 426.869 32.9545H427.233V27.0909H436.847V62.3409C436.847 65.3106 436.119 67.7955 434.665 69.7955C433.21 71.7955 431.195 73.2955 428.619 74.2955C426.059 75.3106 423.112 75.8182 419.778 75.8182ZM419.983 54.2273C421.544 54.2273 422.862 53.8409 423.938 53.0682C425.028 52.2803 425.862 51.1591 426.438 49.7045C427.028 48.2348 427.324 46.4773 427.324 44.4318C427.324 42.3864 427.036 40.6136 426.46 39.1136C425.884 37.5985 425.051 36.4242 423.96 35.5909C422.869 34.7576 421.544 34.3409 419.983 34.3409C418.392 34.3409 417.051 34.7727 415.96 35.6364C414.869 36.4848 414.044 37.6667 413.483 39.1818C412.922 40.697 412.642 42.447 412.642 44.4318C412.642 46.447 412.922 48.1894 413.483 49.6591C414.059 51.1136 414.884 52.2424 415.96 53.0455C417.051 53.8333 418.392 54.2273 419.983 54.2273Z" fill="#1F1F1F"/>
<path d="M43.9432 112.261C43.6705 109.511 42.5 107.375 40.4318 105.852C38.3636 104.33 35.5568 103.568 32.0114 103.568C29.6023 103.568 27.5682 103.909 25.9091 104.591C24.25 105.25 22.9773 106.17 22.0909 107.352C21.2273 108.534 20.7955 109.875 20.7955 111.375C20.75 112.625 21.0114 113.716 21.5795 114.648C22.1705 115.58 22.9773 116.386 24 117.068C25.0227 117.727 26.2045 118.307 27.5455 118.807C28.8864 119.284 30.3182 119.693 31.8409 120.034L38.1136 121.534C41.1591 122.216 43.9545 123.125 46.5 124.261C49.0455 125.398 51.25 126.795 53.1136 128.455C54.9773 130.114 56.4205 132.068 57.4432 134.318C58.4886 136.568 59.0227 139.148 59.0455 142.057C59.0227 146.33 57.9318 150.034 55.7727 153.17C53.6364 156.284 50.5455 158.705 46.5 160.432C42.4773 162.136 37.625 162.989 31.9432 162.989C26.3068 162.989 21.3977 162.125 17.2159 160.398C13.0568 158.67 9.80682 156.114 7.46591 152.727C5.14773 149.318 3.93182 145.102 3.81818 140.08H18.1023C18.2614 142.42 18.9318 144.375 20.1136 145.943C21.3182 147.489 22.9205 148.659 24.9205 149.455C26.9432 150.227 29.2273 150.614 31.7727 150.614C34.2727 150.614 36.4432 150.25 38.2841 149.523C40.1477 148.795 41.5909 147.784 42.6136 146.489C43.6364 145.193 44.1477 143.705 44.1477 142.023C44.1477 140.455 43.6818 139.136 42.75 138.068C41.8409 137 40.5 136.091 38.7273 135.341C36.9773 134.591 34.8295 133.909 32.2841 133.295L24.6818 131.386C18.7955 129.955 14.1477 127.716 10.7386 124.67C7.32955 121.625 5.63636 117.523 5.65909 112.364C5.63636 108.136 6.76136 104.443 9.03409 101.284C11.3295 98.125 14.4773 95.6591 18.4773 93.8864C22.4773 92.1136 27.0227 91.2273 32.1136 91.2273C37.2955 91.2273 41.8182 92.1136 45.6818 93.8864C49.5682 95.6591 52.5909 98.125 54.75 101.284C56.9091 104.443 58.0227 108.102 58.0909 112.261H43.9432ZM92.5653 163.023C87.179 163.023 82.5426 161.932 78.6562 159.75C74.7926 157.545 71.8153 154.432 69.7244 150.409C67.6335 146.364 66.5881 141.58 66.5881 136.057C66.5881 130.67 67.6335 125.943 69.7244 121.875C71.8153 117.807 74.7585 114.636 78.554 112.364C82.3722 110.091 86.8494 108.955 91.9858 108.955C95.4403 108.955 98.6563 109.511 101.634 110.625C104.634 111.716 107.247 113.364 109.474 115.568C111.724 117.773 113.474 120.545 114.724 123.886C115.974 127.205 116.599 131.091 116.599 135.545V139.534H72.3835V130.534H102.929C102.929 128.443 102.474 126.591 101.565 124.977C100.656 123.364 99.3949 122.102 97.7812 121.193C96.1903 120.261 94.3381 119.795 92.2244 119.795C90.0199 119.795 88.0653 120.307 86.3608 121.33C84.679 122.33 83.3608 123.682 82.4062 125.386C81.4517 127.068 80.9631 128.943 80.9403 131.011V139.568C80.9403 142.159 81.4176 144.398 82.3722 146.284C83.3494 148.17 84.7244 149.625 86.4972 150.648C88.2699 151.67 90.3722 152.182 92.804 152.182C94.4176 152.182 95.8949 151.955 97.2358 151.5C98.5767 151.045 99.7244 150.364 100.679 149.455C101.634 148.545 102.361 147.432 102.861 146.114L116.293 147C115.611 150.227 114.213 153.045 112.099 155.455C110.009 157.841 107.304 159.705 103.986 161.045C100.69 162.364 96.8835 163.023 92.5653 163.023ZM141.009 162.989C137.668 162.989 134.69 162.409 132.077 161.25C129.463 160.068 127.395 158.33 125.872 156.034C124.372 153.716 123.622 150.83 123.622 147.375C123.622 144.466 124.156 142.023 125.224 140.045C126.293 138.068 127.747 136.477 129.588 135.273C131.429 134.068 133.52 133.159 135.861 132.545C138.224 131.932 140.702 131.5 143.293 131.25C146.338 130.932 148.793 130.636 150.656 130.364C152.52 130.068 153.872 129.636 154.713 129.068C155.554 128.5 155.974 127.659 155.974 126.545V126.341C155.974 124.182 155.293 122.511 153.929 121.33C152.588 120.148 150.679 119.557 148.202 119.557C145.588 119.557 143.509 120.136 141.963 121.295C140.418 122.432 139.395 123.864 138.895 125.591L125.463 124.5C126.145 121.318 127.486 118.568 129.486 116.25C131.486 113.909 134.065 112.114 137.224 110.864C140.406 109.591 144.088 108.955 148.27 108.955C151.179 108.955 153.963 109.295 156.622 109.977C159.304 110.659 161.679 111.716 163.747 113.148C165.838 114.58 167.486 116.42 168.69 118.67C169.895 120.898 170.497 123.568 170.497 126.682V162H156.724V154.739H156.315C155.474 156.375 154.349 157.818 152.94 159.068C151.531 160.295 149.838 161.261 147.861 161.966C145.884 162.648 143.599 162.989 141.009 162.989ZM145.168 152.966C147.304 152.966 149.19 152.545 150.827 151.705C152.463 150.841 153.747 149.682 154.679 148.227C155.611 146.773 156.077 145.125 156.077 143.284V137.727C155.622 138.023 154.997 138.295 154.202 138.545C153.429 138.773 152.554 138.989 151.577 139.193C150.599 139.375 149.622 139.545 148.645 139.705C147.668 139.841 146.781 139.966 145.986 140.08C144.281 140.33 142.793 140.727 141.52 141.273C140.247 141.818 139.259 142.557 138.554 143.489C137.849 144.398 137.497 145.534 137.497 146.898C137.497 148.875 138.213 150.386 139.645 151.432C141.099 152.455 142.94 152.966 145.168 152.966Z" fill="#1F1F1F"/>
<path d="M204.068 162V92.1818H250.295V104.352H218.83V120.989H247.227V133.159H218.83V162H204.068ZM279.972 163.023C274.585 163.023 269.949 161.932 266.062 159.75C262.199 157.545 259.222 154.432 257.131 150.409C255.04 146.364 253.994 141.58 253.994 136.057C253.994 130.67 255.04 125.943 257.131 121.875C259.222 117.807 262.165 114.636 265.96 112.364C269.778 110.091 274.256 108.955 279.392 108.955C282.847 108.955 286.063 109.511 289.04 110.625C292.04 111.716 294.653 113.364 296.881 115.568C299.131 117.773 300.881 120.545 302.131 123.886C303.381 127.205 304.006 131.091 304.006 135.545V139.534H259.79V130.534H290.335C290.335 128.443 289.881 126.591 288.972 124.977C288.063 123.364 286.801 122.102 285.188 121.193C283.597 120.261 281.744 119.795 279.631 119.795C277.426 119.795 275.472 120.307 273.767 121.33C272.085 122.33 270.767 123.682 269.812 125.386C268.858 127.068 268.369 128.943 268.347 131.011V139.568C268.347 142.159 268.824 144.398 269.778 146.284C270.756 148.17 272.131 149.625 273.903 150.648C275.676 151.67 277.778 152.182 280.21 152.182C281.824 152.182 283.301 151.955 284.642 151.5C285.983 151.045 287.131 150.364 288.085 149.455C289.04 148.545 289.767 147.432 290.267 146.114L303.699 147C303.017 150.227 301.619 153.045 299.506 155.455C297.415 157.841 294.71 159.705 291.392 161.045C288.097 162.364 284.29 163.023 279.972 163.023ZM357.051 124.568L343.756 125.386C343.528 124.25 343.04 123.227 342.29 122.318C341.54 121.386 340.551 120.648 339.324 120.102C338.119 119.534 336.676 119.25 334.994 119.25C332.744 119.25 330.847 119.727 329.301 120.682C327.756 121.614 326.983 122.864 326.983 124.432C326.983 125.682 327.483 126.739 328.483 127.602C329.483 128.466 331.199 129.159 333.631 129.682L343.108 131.591C348.199 132.636 351.994 134.318 354.494 136.636C356.994 138.955 358.244 142 358.244 145.773C358.244 149.205 357.233 152.216 355.21 154.807C353.21 157.398 350.46 159.42 346.96 160.875C343.483 162.307 339.472 163.023 334.926 163.023C327.994 163.023 322.472 161.58 318.358 158.693C314.267 155.784 311.869 151.83 311.165 146.83L325.449 146.08C325.881 148.193 326.926 149.807 328.585 150.92C330.244 152.011 332.369 152.557 334.96 152.557C337.506 152.557 339.551 152.068 341.097 151.091C342.665 150.091 343.46 148.807 343.483 147.239C343.46 145.92 342.903 144.841 341.812 144C340.722 143.136 339.04 142.477 336.767 142.023L327.699 140.216C322.585 139.193 318.778 137.42 316.278 134.898C313.801 132.375 312.562 129.159 312.562 125.25C312.562 121.886 313.472 118.989 315.29 116.557C317.131 114.125 319.71 112.25 323.028 110.932C326.369 109.614 330.278 108.955 334.756 108.955C341.369 108.955 346.574 110.352 350.369 113.148C354.188 115.943 356.415 119.75 357.051 124.568ZM395.241 109.636V120.545H363.707V109.636H395.241ZM370.866 97.0909H385.389V145.909C385.389 147.25 385.594 148.295 386.003 149.045C386.412 149.773 386.98 150.284 387.707 150.58C388.457 150.875 389.321 151.023 390.298 151.023C390.98 151.023 391.662 150.966 392.344 150.852C393.026 150.716 393.548 150.614 393.912 150.545L396.196 161.352C395.469 161.58 394.446 161.841 393.128 162.136C391.81 162.455 390.207 162.648 388.321 162.716C384.821 162.852 381.753 162.386 379.116 161.318C376.503 160.25 374.469 158.591 373.014 156.341C371.56 154.091 370.844 151.25 370.866 147.818V97.0909ZM404.702 162V109.636H419.224V162H404.702ZM411.997 102.886C409.838 102.886 407.986 102.17 406.44 100.739C404.918 99.2841 404.156 97.5455 404.156 95.5227C404.156 93.5227 404.918 91.8068 406.44 90.375C407.986 88.9205 409.838 88.1932 411.997 88.1932C414.156 88.1932 415.997 88.9205 417.52 90.375C419.065 91.8068 419.838 93.5227 419.838 95.5227C419.838 97.5455 419.065 99.2841 417.52 100.739C415.997 102.17 414.156 102.886 411.997 102.886ZM479.676 109.636L461.369 162H445.006L426.699 109.636H442.04L452.915 147.102H453.46L464.301 109.636H479.676ZM500.634 162.989C497.293 162.989 494.315 162.409 491.702 161.25C489.088 160.068 487.02 158.33 485.497 156.034C483.997 153.716 483.247 150.83 483.247 147.375C483.247 144.466 483.781 142.023 484.849 140.045C485.918 138.068 487.372 136.477 489.213 135.273C491.054 134.068 493.145 133.159 495.486 132.545C497.849 131.932 500.327 131.5 502.918 131.25C505.963 130.932 508.418 130.636 510.281 130.364C512.145 130.068 513.497 129.636 514.338 129.068C515.179 128.5 515.599 127.659 515.599 126.545V126.341C515.599 124.182 514.918 122.511 513.554 121.33C512.213 120.148 510.304 119.557 507.827 119.557C505.213 119.557 503.134 120.136 501.588 121.295C500.043 122.432 499.02 123.864 498.52 125.591L485.088 124.5C485.77 121.318 487.111 118.568 489.111 116.25C491.111 113.909 493.69 112.114 496.849 110.864C500.031 109.591 503.713 108.955 507.895 108.955C510.804 108.955 513.588 109.295 516.247 109.977C518.929 110.659 521.304 111.716 523.372 113.148C525.463 114.58 527.111 116.42 528.315 118.67C529.52 120.898 530.122 123.568 530.122 126.682V162H516.349V154.739H515.94C515.099 156.375 513.974 157.818 512.565 159.068C511.156 160.295 509.463 161.261 507.486 161.966C505.509 162.648 503.224 162.989 500.634 162.989ZM504.793 152.966C506.929 152.966 508.815 152.545 510.452 151.705C512.088 150.841 513.372 149.682 514.304 148.227C515.236 146.773 515.702 145.125 515.702 143.284V137.727C515.247 138.023 514.622 138.295 513.827 138.545C513.054 138.773 512.179 138.989 511.202 139.193C510.224 139.375 509.247 139.545 508.27 139.705C507.293 139.841 506.406 139.966 505.611 140.08C503.906 140.33 502.418 140.727 501.145 141.273C499.872 141.818 498.884 142.557 498.179 143.489C497.474 144.398 497.122 145.534 497.122 146.898C497.122 148.875 497.838 150.386 499.27 151.432C500.724 152.455 502.565 152.966 504.793 152.966ZM555.912 92.1818V162H541.389V92.1818H555.912Z" fill="#1F1F1F"/>
</svg>
