<svg width="313" height="61" viewBox="0 0 313 61" fill="none" xmlns="http://www.w3.org/2000/svg">
<path d="M38.9773 0.454544V47H30.4773L10.2273 17.7045H9.88636V47H0.0454545V0.454544H8.68182L28.7727 29.7273H29.1818V0.454544H38.9773ZM56.608 26.8182V47H46.9261V0.454544H56.3352V18.25H56.7443C57.5322 16.1894 58.8049 14.5758 60.5625 13.4091C62.3201 12.2273 64.5246 11.6364 67.1761 11.6364C69.6004 11.6364 71.714 12.1667 73.517 13.2273C75.3352 14.2727 76.7443 15.7803 77.7443 17.75C78.7595 19.7045 79.2595 22.0455 79.2443 24.7727V47H69.5625V26.5C69.5777 24.3485 69.0322 22.6742 67.9261 21.4773C66.8352 20.2803 65.3049 19.6818 63.3352 19.6818C62.017 19.6818 60.8504 19.9621 59.8352 20.5227C58.8352 21.0833 58.0473 21.9015 57.4716 22.9773C56.911 24.0379 56.6231 25.3182 56.608 26.8182ZM96.8182 47.6591C94.5909 47.6591 92.6061 47.2727 90.8636 46.5C89.1212 45.7121 87.7424 44.553 86.7273 43.0227C85.7273 41.4773 85.2273 39.553 85.2273 37.25C85.2273 35.3106 85.5833 33.6818 86.2955 32.3636C87.0076 31.0455 87.9773 29.9848 89.2045 29.1818C90.4318 28.3788 91.8258 27.7727 93.3864 27.3636C94.9621 26.9545 96.6136 26.6667 98.3409 26.5C100.371 26.2879 102.008 26.0909 103.25 25.9091C104.492 25.7121 105.394 25.4242 105.955 25.0455C106.515 24.6667 106.795 24.1061 106.795 23.3636V23.2273C106.795 21.7879 106.341 20.6742 105.432 19.8864C104.538 19.0985 103.265 18.7045 101.614 18.7045C99.8712 18.7045 98.4848 19.0909 97.4545 19.8636C96.4242 20.6212 95.7424 21.5758 95.4091 22.7273L86.4545 22C86.9091 19.8788 87.803 18.0455 89.1364 16.5C90.4697 14.9394 92.1894 13.7424 94.2955 12.9091C96.4167 12.0606 98.8712 11.6364 101.659 11.6364C103.598 11.6364 105.455 11.8636 107.227 12.3182C109.015 12.7727 110.598 13.4773 111.977 14.4318C113.371 15.3864 114.47 16.6136 115.273 18.1136C116.076 19.5985 116.477 21.3788 116.477 23.4545V47H107.295V42.1591H107.023C106.462 43.25 105.712 44.2121 104.773 45.0455C103.833 45.8636 102.705 46.5076 101.386 46.9773C100.068 47.4318 98.5455 47.6591 96.8182 47.6591ZM99.5909 40.9773C101.015 40.9773 102.273 40.697 103.364 40.1364C104.455 39.5606 105.311 38.7879 105.932 37.8182C106.553 36.8485 106.864 35.75 106.864 34.5227V30.8182C106.561 31.0152 106.144 31.197 105.614 31.3636C105.098 31.5152 104.515 31.6591 103.864 31.7955C103.212 31.9167 102.561 32.0303 101.909 32.1364C101.258 32.2273 100.667 32.3106 100.136 32.3864C99 32.553 98.0076 32.8182 97.1591 33.1818C96.3106 33.5455 95.6515 34.0379 95.1818 34.6591C94.7121 35.2652 94.4773 36.0227 94.4773 36.9318C94.4773 38.25 94.9545 39.2576 95.9091 39.9545C96.8788 40.6364 98.1061 40.9773 99.5909 40.9773ZM137.21 8.56818V0.454544H175.438V8.56818H161.188V47H151.46V8.56818H137.21ZM177.926 47V12.0909H187.312V18.1818H187.676C188.313 16.0152 189.381 14.3788 190.881 13.2727C192.381 12.1515 194.108 11.5909 196.062 11.5909C196.547 11.5909 197.07 11.6212 197.631 11.6818C198.191 11.7424 198.684 11.8258 199.108 11.9318V20.5227C198.653 20.3864 198.025 20.2652 197.222 20.1591C196.419 20.053 195.684 20 195.017 20C193.593 20 192.32 20.3106 191.199 20.9318C190.093 21.5379 189.214 22.3864 188.562 23.4773C187.926 24.5682 187.608 25.8258 187.608 27.25V47H177.926ZM213.068 47.6591C210.841 47.6591 208.856 47.2727 207.114 46.5C205.371 45.7121 203.992 44.553 202.977 43.0227C201.977 41.4773 201.477 39.553 201.477 37.25C201.477 35.3106 201.833 33.6818 202.545 32.3636C203.258 31.0455 204.227 29.9848 205.455 29.1818C206.682 28.3788 208.076 27.7727 209.636 27.3636C211.212 26.9545 212.864 26.6667 214.591 26.5C216.621 26.2879 218.258 26.0909 219.5 25.9091C220.742 25.7121 221.644 25.4242 222.205 25.0455C222.765 24.6667 223.045 24.1061 223.045 23.3636V23.2273C223.045 21.7879 222.591 20.6742 221.682 19.8864C220.788 19.0985 219.515 18.7045 217.864 18.7045C216.121 18.7045 214.735 19.0909 213.705 19.8636C212.674 20.6212 211.992 21.5758 211.659 22.7273L202.705 22C203.159 19.8788 204.053 18.0455 205.386 16.5C206.72 14.9394 208.439 13.7424 210.545 12.9091C212.667 12.0606 215.121 11.6364 217.909 11.6364C219.848 11.6364 221.705 11.8636 223.477 12.3182C225.265 12.7727 226.848 13.4773 228.227 14.4318C229.621 15.3864 230.72 16.6136 231.523 18.1136C232.326 19.5985 232.727 21.3788 232.727 23.4545V47H223.545V42.1591H223.273C222.712 43.25 221.962 44.2121 221.023 45.0455C220.083 45.8636 218.955 46.5076 217.636 46.9773C216.318 47.4318 214.795 47.6591 213.068 47.6591ZM215.841 40.9773C217.265 40.9773 218.523 40.697 219.614 40.1364C220.705 39.5606 221.561 38.7879 222.182 37.8182C222.803 36.8485 223.114 35.75 223.114 34.5227V30.8182C222.811 31.0152 222.394 31.197 221.864 31.3636C221.348 31.5152 220.765 31.6591 220.114 31.7955C219.462 31.9167 218.811 32.0303 218.159 32.1364C217.508 32.2273 216.917 32.3106 216.386 32.3864C215.25 32.553 214.258 32.8182 213.409 33.1818C212.561 33.5455 211.902 34.0379 211.432 34.6591C210.962 35.2652 210.727 36.0227 210.727 36.9318C210.727 38.25 211.205 39.2576 212.159 39.9545C213.129 40.6364 214.356 40.9773 215.841 40.9773ZM249.92 26.8182V47H240.239V12.0909H249.466V18.25H249.875C250.648 16.2197 251.943 14.6136 253.761 13.4318C255.58 12.2348 257.784 11.6364 260.375 11.6364C262.799 11.6364 264.913 12.1667 266.716 13.2273C268.519 14.2879 269.92 15.803 270.92 17.7727C271.92 19.7273 272.42 22.0606 272.42 24.7727V47H262.739V26.5C262.754 24.3636 262.208 22.697 261.102 21.5C259.996 20.2879 258.473 19.6818 256.534 19.6818C255.231 19.6818 254.08 19.9621 253.08 20.5227C252.095 21.0833 251.322 21.9015 250.761 22.9773C250.216 24.0379 249.936 25.3182 249.92 26.8182ZM295.778 60.8182C292.642 60.8182 289.953 60.3864 287.71 59.5227C285.483 58.6742 283.71 57.5152 282.392 56.0455C281.074 54.5758 280.218 52.9242 279.824 51.0909L288.778 49.8864C289.051 50.5833 289.483 51.2348 290.074 51.8409C290.665 52.447 291.445 52.9318 292.415 53.2955C293.4 53.6742 294.597 53.8636 296.006 53.8636C298.112 53.8636 299.847 53.3485 301.21 52.3182C302.589 51.303 303.278 49.5985 303.278 47.2045V40.8182H302.869C302.445 41.7879 301.809 42.7045 300.96 43.5682C300.112 44.4318 299.021 45.1364 297.688 45.6818C296.354 46.2273 294.763 46.5 292.915 46.5C290.294 46.5 287.907 45.8939 285.756 44.6818C283.619 43.4545 281.915 41.5833 280.642 39.0682C279.384 36.5379 278.756 33.3409 278.756 29.4773C278.756 25.5227 279.4 22.2197 280.688 19.5682C281.975 16.9167 283.688 14.9318 285.824 13.6136C287.975 12.2955 290.331 11.6364 292.892 11.6364C294.847 11.6364 296.483 11.9697 297.801 12.6364C299.119 13.2879 300.18 14.1061 300.983 15.0909C301.801 16.0606 302.43 17.0152 302.869 17.9545H303.233V12.0909H312.847V47.3409C312.847 50.3106 312.119 52.7955 310.665 54.7955C309.21 56.7955 307.195 58.2955 304.619 59.2955C302.059 60.3106 299.112 60.8182 295.778 60.8182ZM295.983 39.2273C297.544 39.2273 298.862 38.8409 299.938 38.0682C301.028 37.2803 301.862 36.1591 302.438 34.7045C303.028 33.2348 303.324 31.4773 303.324 29.4318C303.324 27.3864 303.036 25.6136 302.46 24.1136C301.884 22.5985 301.051 21.4242 299.96 20.5909C298.869 19.7576 297.544 19.3409 295.983 19.3409C294.392 19.3409 293.051 19.7727 291.96 20.6364C290.869 21.4848 290.044 22.6667 289.483 24.1818C288.922 25.697 288.642 27.447 288.642 29.4318C288.642 31.447 288.922 33.1894 289.483 34.6591C290.059 36.1136 290.884 37.2424 291.96 38.0455C293.051 38.8333 294.392 39.2273 295.983 39.2273Z" fill="#1F1F1F"/>
</svg>
