<svg width="168" height="73" viewBox="0 0 168 73" fill="none" xmlns="http://www.w3.org/2000/svg">
<path d="M40.9432 21.2614C40.6705 18.5114 39.5 16.375 37.4318 14.8523C35.3636 13.3295 32.5568 12.5682 29.0114 12.5682C26.6023 12.5682 24.5682 12.9091 22.9091 13.5909C21.25 14.25 19.9773 15.1705 19.0909 16.3523C18.2273 17.5341 17.7955 18.875 17.7955 20.375C17.75 21.625 18.0114 22.7159 18.5795 23.6477C19.1705 24.5795 19.9773 25.3864 21 26.0682C22.0227 26.7273 23.2045 27.3068 24.5455 27.8068C25.8864 28.2841 27.3182 28.6932 28.8409 29.0341L35.1136 30.5341C38.1591 31.2159 40.9545 32.125 43.5 33.2614C46.0455 34.3977 48.25 35.7955 50.1136 37.4545C51.9773 39.1136 53.4205 41.0682 54.4432 43.3182C55.4886 45.5682 56.0227 48.1477 56.0455 51.0568C56.0227 55.3295 54.9318 59.0341 52.7727 62.1705C50.6364 65.2841 47.5455 67.7045 43.5 69.4318C39.4773 71.1364 34.625 71.9886 28.9432 71.9886C23.3068 71.9886 18.3977 71.125 14.2159 69.3977C10.0568 67.6705 6.80682 65.1136 4.46591 61.7273C2.14773 58.3182 0.931818 54.1023 0.818182 49.0795H15.1023C15.2614 51.4205 15.9318 53.375 17.1136 54.9432C18.3182 56.4886 19.9205 57.6591 21.9205 58.4545C23.9432 59.2273 26.2273 59.6136 28.7727 59.6136C31.2727 59.6136 33.4432 59.25 35.2841 58.5227C37.1477 57.7955 38.5909 56.7841 39.6136 55.4886C40.6364 54.1932 41.1477 52.7045 41.1477 51.0227C41.1477 49.4545 40.6818 48.1364 39.75 47.0682C38.8409 46 37.5 45.0909 35.7273 44.3409C33.9773 43.5909 31.8295 42.9091 29.2841 42.2955L21.6818 40.3864C15.7955 38.9545 11.1477 36.7159 7.73864 33.6705C4.32955 30.625 2.63636 26.5227 2.65909 21.3636C2.63636 17.1364 3.76136 13.4432 6.03409 10.2841C8.32955 7.125 11.4773 4.65909 15.4773 2.88636C19.4773 1.11363 24.0227 0.22727 29.1136 0.22727C34.2955 0.22727 38.8182 1.11363 42.6818 2.88636C46.5682 4.65909 49.5909 7.125 51.75 10.2841C53.9091 13.4432 55.0227 17.1023 55.0909 21.2614H40.9432ZM89.5653 72.0227C84.179 72.0227 79.5426 70.9318 75.6562 68.75C71.7926 66.5455 68.8153 63.4318 66.7244 59.4091C64.6335 55.3636 63.5881 50.5795 63.5881 45.0568C63.5881 39.6705 64.6335 34.9432 66.7244 30.875C68.8153 26.8068 71.7585 23.6364 75.554 21.3636C79.3722 19.0909 83.8494 17.9545 88.9858 17.9545C92.4403 17.9545 95.6563 18.5114 98.6335 19.625C101.634 20.7159 104.247 22.3636 106.474 24.5682C108.724 26.7727 110.474 29.5455 111.724 32.8864C112.974 36.2045 113.599 40.0909 113.599 44.5455V48.5341H69.3835V39.5341H99.929C99.929 37.4432 99.4744 35.5909 98.5653 33.9773C97.6563 32.3636 96.3949 31.1023 94.7812 30.1932C93.1903 29.2614 91.3381 28.7955 89.2244 28.7955C87.0199 28.7955 85.0653 29.3068 83.3608 30.3295C81.679 31.3295 80.3608 32.6818 79.4062 34.3864C78.4517 36.0682 77.9631 37.9432 77.9403 40.0114V48.5682C77.9403 51.1591 78.4176 53.3977 79.3722 55.2841C80.3494 57.1705 81.7244 58.625 83.4972 59.6477C85.2699 60.6705 87.3722 61.1818 89.804 61.1818C91.4176 61.1818 92.8949 60.9545 94.2358 60.5C95.5767 60.0455 96.7244 59.3636 97.679 58.4545C98.6335 57.5455 99.3608 56.4318 99.8608 55.1136L113.293 56C112.611 59.2273 111.213 62.0455 109.099 64.4545C107.009 66.8409 104.304 68.7045 100.986 70.0455C97.6903 71.3636 93.8835 72.0227 89.5653 72.0227ZM138.009 71.9886C134.668 71.9886 131.69 71.4091 129.077 70.25C126.463 69.0682 124.395 67.3295 122.872 65.0341C121.372 62.7159 120.622 59.8295 120.622 56.375C120.622 53.4659 121.156 51.0227 122.224 49.0455C123.293 47.0682 124.747 45.4773 126.588 44.2727C128.429 43.0682 130.52 42.1591 132.861 41.5455C135.224 40.9318 137.702 40.5 140.293 40.25C143.338 39.9318 145.793 39.6364 147.656 39.3636C149.52 39.0682 150.872 38.6364 151.713 38.0682C152.554 37.5 152.974 36.6591 152.974 35.5455V35.3409C152.974 33.1818 152.293 31.5114 150.929 30.3295C149.588 29.1477 147.679 28.5568 145.202 28.5568C142.588 28.5568 140.509 29.1364 138.963 30.2955C137.418 31.4318 136.395 32.8636 135.895 34.5909L122.463 33.5C123.145 30.3182 124.486 27.5682 126.486 25.25C128.486 22.9091 131.065 21.1136 134.224 19.8636C137.406 18.5909 141.088 17.9545 145.27 17.9545C148.179 17.9545 150.963 18.2955 153.622 18.9773C156.304 19.6591 158.679 20.7159 160.747 22.1477C162.838 23.5795 164.486 25.4205 165.69 27.6705C166.895 29.8977 167.497 32.5682 167.497 35.6818V71H153.724V63.7386H153.315C152.474 65.375 151.349 66.8182 149.94 68.0682C148.531 69.2955 146.838 70.2614 144.861 70.9659C142.884 71.6477 140.599 71.9886 138.009 71.9886ZM142.168 61.9659C144.304 61.9659 146.19 61.5455 147.827 60.7045C149.463 59.8409 150.747 58.6818 151.679 57.2273C152.611 55.7727 153.077 54.125 153.077 52.2841V46.7273C152.622 47.0227 151.997 47.2955 151.202 47.5455C150.429 47.7727 149.554 47.9886 148.577 48.1932C147.599 48.375 146.622 48.5455 145.645 48.7045C144.668 48.8409 143.781 48.9659 142.986 49.0795C141.281 49.3295 139.793 49.7273 138.52 50.2727C137.247 50.8182 136.259 51.5568 135.554 52.4886C134.849 53.3977 134.497 54.5341 134.497 55.8977C134.497 57.875 135.213 59.3864 136.645 60.4318C138.099 61.4545 139.94 61.9659 142.168 61.9659Z" fill="#1F1F1F"/>
</svg>
