<svg width="346" height="100" viewBox="0 0 346 100" fill="none" xmlns="http://www.w3.org/2000/svg">
<path d="M4.68237 69.8005C1.44395 68.6491 0.0633719 68.3019 4.90889 67.6486C14.8023 66.3146 24.7017 65.1351 34.5829 63.6845C64.7361 59.2577 94.5591 54.8088 124.964 52.5284C128.285 52.2794 137.243 50.3317 140.933 51.9055C144.649 53.4901 141.219 65.9157 140.48 67.8751C137.334 76.2262 131.261 80.0474 122.699 81.9193C98.9199 87.1174 71.443 85.65 47.5511 82.0325C35.992 80.2824 1.7882 72.8213 11.0815 53.4911C15.1389 45.0518 24.8615 40.3696 33.2238 37.5216C51.5412 31.283 72.4886 30.1245 91.6656 31.179C106.639 32.0024 133.597 36.0912 139.801 53.1514C140.978 56.3892 139.745 59.4089 136.177 59.6072C130.002 59.9502 148.672 59.8798 154.695 58.4746C170.879 54.6981 187.057 49.4138 203.792 49.4138C218.393 49.4138 249.824 54.6578 254.646 34.4069C257.21 23.6398 256.35 10.9698 244.906 6.1487C232.404 0.882546 217.956 0.748073 204.812 3.03406C179.859 7.37364 163.497 20.7677 156.224 45.2232C150.886 63.1714 152.609 79.6981 171.287 87.1292C177.953 89.7813 185.668 90.3855 192.806 90.1872C195.252 90.1193 194.025 87.1727 194.505 85.4303C196.954 76.5551 208.236 73.2021 216.025 71.6127C217.41 71.33 226.414 68.3395 227.69 70.2535C229.877 73.5341 230.743 74.5004 235.335 74.8406C245.601 75.601 256.462 78.1347 265.576 82.9952C280.563 90.9886 255.091 94.9423 249.21 96.0767C246.529 96.5937 243.771 97.3364 241.055 97.6623C235.591 98.318 246.396 87.9448 250.002 83.7881C266.254 65.0551 287.17 50.5511 312.861 50.8862C327.738 51.0802 338.452 60.6724 342.818 74.5008C346.65 86.6325 343.58 95.5878 329.624 93.8115C317.533 92.2726 309.217 82.9218 316.486 71.4994C321.402 63.774 328.427 61.0336 336.986 59.6072" stroke="black" stroke-width="3" stroke-linecap="round"/>
</svg>
