<?xml version="1.0" encoding="UTF-8"?>
<svg id="Layer_2" data-name="Layer 2" xmlns="http://www.w3.org/2000/svg" viewBox="0 0 512.58 164.14">
  <g id="Layer_1-2" data-name="Layer 1">
    <g>
      <path d="m151.62,48h-6.03l-22.91-35.06v35.06h-6.03V2.5h6.03l22.97,35.22V2.5h5.97v45.5Z"/>
      <path d="m167.15,18.28c2.56-3.15,5.9-4.72,10-4.72,7.15,0,10.75,4.03,10.81,12.09v22.34h-5.78v-22.38c-.02-2.44-.58-4.24-1.67-5.41-1.09-1.17-2.8-1.75-5.11-1.75-1.88,0-3.52.5-4.94,1.5-1.42,1-2.52,2.31-3.31,3.94v24.09h-5.78V0h5.78v18.28Z"/>
      <path d="m217.49,48c-.33-.67-.6-1.85-.81-3.56-2.69,2.79-5.9,4.19-9.62,4.19-3.33,0-6.07-.94-8.2-2.83-2.14-1.89-3.2-4.28-3.2-7.17,0-3.52,1.34-6.25,4.02-8.2,2.68-1.95,6.44-2.92,11.3-2.92h5.62v-2.66c0-2.02-.6-3.63-1.81-4.83-1.21-1.2-2.99-1.8-5.34-1.8-2.06,0-3.79.52-5.19,1.56-1.4,1.04-2.09,2.3-2.09,3.78h-5.81c0-1.69.6-3.32,1.8-4.89,1.2-1.57,2.82-2.82,4.88-3.73,2.05-.92,4.31-1.38,6.77-1.38,3.9,0,6.95.97,9.16,2.92,2.21,1.95,3.35,4.63,3.44,8.05v15.56c0,3.1.4,5.57,1.19,7.41v.5h-6.06Zm-9.59-4.41c1.81,0,3.53-.47,5.16-1.41s2.8-2.16,3.53-3.66v-6.94h-4.53c-7.08,0-10.62,2.07-10.62,6.22,0,1.81.6,3.23,1.81,4.25,1.21,1.02,2.76,1.53,4.66,1.53Z"/>
      <path d="m278.37,7.41h-14.63v40.59h-5.97V7.41h-14.59V2.5h35.19v4.91Z"/>
      <path d="m298.21,19.38c-.88-.15-1.82-.22-2.84-.22-3.79,0-6.37,1.61-7.72,4.84v24h-5.78V14.19h5.62l.09,3.91c1.9-3.02,4.58-4.53,8.06-4.53,1.12,0,1.98.15,2.56.44v5.38Z"/>
      <path d="m323.15,48c-.33-.67-.6-1.85-.81-3.56-2.69,2.79-5.9,4.19-9.62,4.19-3.33,0-6.07-.94-8.2-2.83-2.14-1.89-3.2-4.28-3.2-7.17,0-3.52,1.34-6.25,4.02-8.2,2.68-1.95,6.44-2.92,11.3-2.92h5.62v-2.66c0-2.02-.6-3.63-1.81-4.83-1.21-1.2-2.99-1.8-5.34-1.8-2.06,0-3.79.52-5.19,1.56-1.4,1.04-2.09,2.3-2.09,3.78h-5.81c0-1.69.6-3.32,1.8-4.89,1.2-1.57,2.82-2.82,4.88-3.73,2.05-.92,4.31-1.38,6.77-1.38,3.9,0,6.95.97,9.16,2.92,2.21,1.95,3.35,4.63,3.44,8.05v15.56c0,3.1.4,5.57,1.19,7.41v.5h-6.06Zm-9.59-4.41c1.81,0,3.53-.47,5.16-1.41s2.8-2.16,3.53-3.66v-6.94h-4.53c-7.08,0-10.62,2.07-10.62,6.22,0,1.81.6,3.23,1.81,4.25,1.21,1.02,2.76,1.53,4.66,1.53Z"/>
      <path d="m342.56,14.19l.19,4.25c2.58-3.25,5.96-4.88,10.12-4.88,7.15,0,10.75,4.03,10.81,12.09v22.34h-5.78v-22.38c-.02-2.44-.58-4.24-1.67-5.41-1.09-1.17-2.8-1.75-5.11-1.75-1.88,0-3.52.5-4.94,1.5-1.42,1-2.52,2.31-3.31,3.94v24.09h-5.78V14.19h5.47Z"/>
      <path d="m371.02,30.81c0-5.27,1.22-9.46,3.66-12.58,2.44-3.11,5.67-4.67,9.69-4.67s7.34,1.46,9.66,4.38l.28-3.75h5.28v33c0,4.38-1.3,7.82-3.89,10.34-2.59,2.52-6.08,3.78-10.45,3.78-2.44,0-4.82-.52-7.16-1.56-2.33-1.04-4.12-2.47-5.34-4.28l3-3.47c2.48,3.06,5.51,4.59,9.09,4.59,2.81,0,5-.79,6.58-2.38,1.57-1.58,2.36-3.81,2.36-6.69v-2.91c-2.31,2.67-5.47,4-9.47,4s-7.16-1.59-9.61-4.78c-2.45-3.19-3.67-7.53-3.67-13.03Zm5.81.66c0,3.81.78,6.81,2.34,8.98,1.56,2.18,3.75,3.27,6.56,3.27,3.65,0,6.32-1.66,8.03-4.97v-15.44c-1.77-3.23-4.43-4.84-7.97-4.84-2.81,0-5.01,1.09-6.59,3.28-1.58,2.19-2.38,5.43-2.38,9.72Z"/>
      <path d="m38.25,145.29c0-2.66-.94-4.7-2.81-6.12s-5.25-2.92-10.12-4.5-8.73-3.13-11.58-4.66c-7.75-4.19-11.62-9.83-11.62-16.92,0-3.69,1.04-6.98,3.12-9.87,2.08-2.89,5.06-5.15,8.95-6.77s8.26-2.44,13.1-2.44,9.22.88,13.03,2.65c3.81,1.77,6.77,4.26,8.88,7.48s3.16,6.88,3.16,10.97h-14.06c0-3.12-.98-5.55-2.95-7.29s-4.73-2.6-8.3-2.6-6.11.73-8.02,2.18c-1.91,1.45-2.86,3.37-2.86,5.74,0,2.22,1.12,4.08,3.35,5.58,2.23,1.5,5.52,2.91,9.87,4.22,8,2.41,13.83,5.39,17.48,8.95s5.48,8,5.48,13.31c0,5.91-2.23,10.54-6.7,13.9-4.47,3.36-10.48,5.04-18.05,5.04-5.25,0-10.03-.96-14.34-2.88s-7.6-4.55-9.87-7.9c-2.27-3.34-3.4-7.22-3.4-11.62h14.11c0,7.53,4.5,11.3,13.5,11.3,3.34,0,5.95-.68,7.83-2.04s2.81-3.26,2.81-5.7Z"/>
      <path d="m84.33,164.14c-7.44,0-13.49-2.28-18.16-6.84-4.67-4.56-7.01-10.64-7.01-18.23v-1.31c0-5.09.98-9.65,2.95-13.66s4.76-7.11,8.37-9.28,7.73-3.26,12.35-3.26c6.94,0,12.4,2.19,16.38,6.56s5.98,10.58,5.98,18.61v5.53h-32.3c.44,3.31,1.76,5.97,3.96,7.97s4.99,3,8.37,3c5.22,0,9.3-1.89,12.23-5.67l6.66,7.45c-2.03,2.88-4.78,5.12-8.25,6.73s-7.31,2.41-11.53,2.41Zm-1.55-41.67c-2.69,0-4.87.91-6.54,2.73-1.67,1.82-2.74,4.43-3.21,7.82h18.84v-1.08c-.06-3.01-.88-5.34-2.44-6.99-1.56-1.65-3.78-2.47-6.66-2.47Z"/>
      <path d="m142.27,163.2c-.63-1.22-1.08-2.73-1.36-4.55-3.28,3.66-7.55,5.48-12.8,5.48-4.97,0-9.09-1.44-12.35-4.31-3.27-2.88-4.9-6.5-4.9-10.88,0-5.38,1.99-9.5,5.98-12.38s9.74-4.33,17.27-4.36h6.23v-2.91c0-2.34-.6-4.22-1.8-5.62-1.2-1.41-3.1-2.11-5.7-2.11-2.28,0-4.07.55-5.37,1.64-1.3,1.09-1.95,2.59-1.95,4.5h-13.55c0-2.94.91-5.66,2.72-8.16,1.81-2.5,4.38-4.46,7.69-5.88,3.31-1.42,7.03-2.13,11.16-2.13,6.25,0,11.21,1.57,14.88,4.71,3.67,3.14,5.51,7.55,5.51,13.24v21.98c.03,4.81.7,8.45,2.02,10.92v.8h-13.69Zm-11.2-9.42c2,0,3.84-.45,5.53-1.34s2.94-2.09,3.75-3.59v-8.72h-5.06c-6.78,0-10.39,2.34-10.83,7.03l-.05.8c0,1.69.59,3.08,1.78,4.17,1.19,1.09,2.81,1.64,4.88,1.64Z"/>
      <path d="m230.2,135.31h-27v27.89h-14.06v-68.25h44.44v11.39h-30.38v17.62h27v11.34Z"/>
      <path d="m263.2,164.14c-7.44,0-13.49-2.28-18.16-6.84-4.67-4.56-7.01-10.64-7.01-18.23v-1.31c0-5.09.98-9.65,2.95-13.66s4.76-7.11,8.37-9.28,7.73-3.26,12.35-3.26c6.94,0,12.4,2.19,16.38,6.56s5.98,10.58,5.98,18.61v5.53h-32.3c.44,3.31,1.76,5.97,3.96,7.97s4.99,3,8.37,3c5.22,0,9.3-1.89,12.23-5.67l6.66,7.45c-2.03,2.88-4.78,5.12-8.25,6.73s-7.31,2.41-11.53,2.41Zm-1.55-41.67c-2.69,0-4.87.91-6.54,2.73-1.67,1.82-2.74,4.43-3.21,7.82h18.84v-1.08c-.06-3.01-.88-5.34-2.44-6.99-1.56-1.65-3.78-2.47-6.66-2.47Z"/>
      <path d="m319.22,149.18c0-1.66-.82-2.96-2.46-3.91s-4.27-1.8-7.9-2.55c-12.06-2.53-18.09-7.66-18.09-15.38,0-4.5,1.87-8.26,5.6-11.27,3.73-3.02,8.62-4.52,14.65-4.52,6.44,0,11.58,1.52,15.45,4.55,3.86,3.03,5.79,6.97,5.79,11.81h-13.55c0-1.94-.63-3.54-1.88-4.8-1.25-1.27-3.2-1.9-5.86-1.9-2.28,0-4.05.52-5.3,1.55-1.25,1.03-1.88,2.34-1.88,3.94,0,1.5.71,2.71,2.13,3.63,1.42.92,3.82,1.72,7.2,2.39s6.22,1.43,8.53,2.27c7.16,2.62,10.73,7.17,10.73,13.64,0,4.62-1.99,8.37-5.95,11.23-3.97,2.86-9.09,4.29-15.38,4.29-4.25,0-8.02-.76-11.32-2.27-3.3-1.52-5.88-3.59-7.76-6.23s-2.81-5.49-2.81-8.55h12.84c.12,2.41,1.01,4.25,2.67,5.53,1.66,1.28,3.87,1.92,6.66,1.92,2.59,0,4.55-.49,5.88-1.48,1.33-.98,1.99-2.27,1.99-3.87Z"/>
      <path d="m357.33,100.01v12.47h8.67v9.94h-8.67v25.31c0,1.88.36,3.22,1.08,4.03.72.81,2.09,1.22,4.12,1.22,1.5,0,2.83-.11,3.98-.33v10.27c-2.66.81-5.39,1.22-8.2,1.22-9.5,0-14.34-4.8-14.53-14.39v-27.33h-7.41v-9.94h7.41v-12.47h13.55Z"/>
      <path d="m373.45,99.36c0-2.03.68-3.7,2.04-5.02s3.21-1.97,5.55-1.97,4.16.66,5.53,1.97c1.38,1.31,2.06,2.98,2.06,5.02s-.7,3.75-2.09,5.06c-1.39,1.31-3.23,1.97-5.51,1.97s-4.12-.66-5.51-1.97c-1.39-1.31-2.09-3-2.09-5.06Zm14.39,63.84h-13.59v-50.72h13.59v50.72Z"/>
      <path d="m417.98,146.65l9.42-34.17h14.16l-17.11,50.72h-12.94l-17.11-50.72h14.16l9.42,34.17Z"/>
      <path d="m476.2,163.2c-.62-1.22-1.08-2.73-1.36-4.55-3.28,3.66-7.55,5.48-12.8,5.48-4.97,0-9.09-1.44-12.35-4.31s-4.9-6.5-4.9-10.88c0-5.38,1.99-9.5,5.98-12.38s9.74-4.33,17.27-4.36h6.23v-2.91c0-2.34-.6-4.22-1.8-5.62s-3.1-2.11-5.7-2.11c-2.28,0-4.07.55-5.37,1.64s-1.95,2.59-1.95,4.5h-13.55c0-2.94.91-5.66,2.72-8.16s4.38-4.46,7.69-5.88,7.03-2.13,11.16-2.13c6.25,0,11.21,1.57,14.88,4.71s5.51,7.55,5.51,13.24v21.98c.03,4.81.7,8.45,2.02,10.92v.8h-13.69Zm-11.2-9.42c2,0,3.84-.45,5.53-1.34s2.94-2.09,3.75-3.59v-8.72h-5.06c-6.78,0-10.39,2.34-10.83,7.03l-.05.8c0,1.69.59,3.08,1.78,4.17s2.81,1.64,4.88,1.64Z"/>
      <path d="m512.58,163.2h-13.59v-72h13.59v72Z"/>
    </g>
  </g>
</svg>